PathFileType	4	(X/Y/Z)	58_2_73_p0_0-356_filt_butterworth.trc
DataRate	CameraRate	NumFrames	NumMarkers	Units	OrigDataRate	OrigDataStartFrame	OrigNumFrames
32.0	32.0	7	27	m	32.0	44	356
Frame#	Time	RHip			RKnee			RAnkle			RBigToe			RSmallToe			RHeel			LHip			LKnee			LAnkle			LBigToe			LSmallToe			LHeel			Neck			Head			Nose			RShoulder			RElbow			RWrist			RThumb			RIndex			RPinky			LShoulder			LElbow			LWrist			LThumb			LIndex			LPinky			
		X1	Y1	Z1	X2	Y2	Z2	X3	Y3	Z3	X4	Y4	Z4	X5	Y5	Z5	X6	Y6	Z6	X7	Y7	Z7	X8	Y8	Z8	X9	Y9	Z9	X10	Y10	Z10	X11	Y11	Z11	X12	Y12	Z12	X13	Y13	Z13	X14	Y14	Z14	X15	Y15	Z15	X16	Y16	Z16	X17	Y17	Z17	X18	Y18	Z18	X19	Y19	Z19	X20	Y20	Z20	X21	Y21	Z21	X22	Y22	Z22	X23	Y23	Z23	X24	Y24	Z24	X25	Y25	Z25	X26	Y26	Z26	X27	Y27	Z27	
44	1.375	0.33222928370752175	0.47782859768635	1.0832053101203956	0.32322742404531146	0.5976489371583459	1.5011363116390108	0.3172321994212294	0.7622396783649527	1.9134323647281197	0.29271245485593733	0.587203520794475	1.9583982855087299	0.3495259586584447	0.6093946756897796	1.948358439618047	0.28788249570564106	0.8526757277057844	1.9766131461225345	0.13088923098013527	0.500775133452737	1.087842680866017	0.1358613969589616	0.6377937617812841	1.5016645254171277	0.12529127252731528	0.7380046739850008	1.895173475338574	0.1298741419990454	0.5691681209690165	1.9390869972727074	0.07888470053419677	0.6097442153567517	1.9426660321474873	0.14038982971810193	0.7897029071113744	1.9469640909487795	0.21110426134000632	0.41816879561051645	0.5477870431663499	0.2261525289787815	0.3384684255700571	0.32480340867003704	0.2030887817267215	0.2815420416689637	0.43904149730753783	0.3636961163663507	0.41855683627543333	0.640299597076398	0.3730460098921694	0.4353274781560042	0.921348107712508	0.3186647609574067	0.3520490863469581	1.1238586251574838	0.2037903880812525	0.3339207816718882	1.187185613337907	0.20395997829400403	0.3582117577372245	1.2137034219316711	0.23281128378485325	0.37728735071435476	1.2247794951590194	0.05758869241961348	0.40413060832947817	0.6370255932752152	0.04706047105824984	0.4276497066674284	0.9177747274494994	0.1413639048560515	0.33519647535915054	1.0949958750584152	0.19988378444549776	0.32838039496025856	1.1629637887977047	0.1931011872201739	0.3275217334433741	1.184822307822912	0.19443203061338105	0.33943260952472154	1.193332503113508
45	1.40625	0.3320773982534323	0.4745884525345492	1.082631417683508	0.32197451778755354	0.5939946396254004	1.5024345296053694	0.3170376548488948	0.7621920581622801	1.9161267196413212	0.2927148967675406	0.5870614775687228	1.9583122929910028	0.34972861765001384	0.6094636011045567	1.9482850311207858	0.2901879302448283	0.8576238249212261	1.9786431605350128	0.13201413515805938	0.5014010209646163	1.0881482537941694	0.13496009293910696	0.6304918086884596	1.502340566148611	0.125375344774048	0.7379902602912036	1.8953078669572343	0.12982973869257397	0.5691070821849842	1.9391588118032703	0.07878346352944846	0.609824541472956	1.9429630794252954	0.1398328239552858	0.7886124565588093	1.9456355964666951	0.21189284100624478	0.4145504622634528	0.5475412312441542	0.22646963545865603	0.3384456052716821	0.32477833012445023	0.2003632409726261	0.28025209083139	0.436965160314009	0.36180434264839145	0.4188168432244438	0.6410292246368118	0.3732017820057567	0.43575042021013366	0.9229208670340279	0.31848269083158487	0.3541628214827961	1.1273064388272844	0.20311322950645636	0.3313051228242756	1.1893264697649322	0.20397477594309338	0.36070232340838826	1.222462557836241	0.23784675885088083	0.38160192370142054	1.2399135001010424	0.057327235493369225	0.4032499835556737	0.6361542453764044	0.047289857898167566	0.42904431024993905	0.92016855734337	0.1415339715927608	0.3360238841603384	1.0978681781567454	0.19850544076179694	0.32733315330442003	1.1650846775950343	0.1911299776160944	0.32357364066810035	1.1842742554437926	0.19147326538611825	0.33611812831930277	1.193330024418338
46	1.4375	0.3317481048048593	0.47864039816845305	1.0876307160391003	0.3190455295792297	0.6060236324775012	1.5096251314185816	0.31649037311194894	0.7640125623726182	1.9180504525637303	0.29266639578820597	0.586849579835821	1.958143925961163	0.3475359828028217	0.607187555525428	1.94738072284728	0.2954436141838699	0.8573989570573646	1.9783455579456741	0.13160123164055648	0.5010183425855042	1.0890198830258702	0.1348150960625252	0.626969489755296	1.502410340274607	0.1253412260096044	0.7380010054330719	1.895193903667617	0.12983696101049366	0.5691090694383416	1.9390729202330097	0.07875305359182878	0.6098717281121729	1.9429510268977377	0.14138958061991627	0.789802707189356	1.9468525447442981	0.21255217359142747	0.416498816564556	0.5484887509677556	0.22519825486433062	0.33870442734570194	0.32569984287987785	0.19853767419870139	0.27907000553115047	0.4361682020516122	0.36092901433345514	0.418999352157185	0.6419866773433733	0.37314226214658597	0.43161934099744803	0.9239029235009155	0.31343099298258037	0.35063331703839484	1.1301004551274434	0.20531955509798458	0.327059614878234	1.1925544194560174	0.2039804798693668	0.362832713196261	1.2341627467215086	0.2414035269780804	0.3832868082247617	1.2502113362013536	0.058194223843779855	0.40633918364129307	0.6350267597648502	0.04738422481157033	0.42975067701109254	0.9213095103207827	0.1404886335968262	0.33312115596576347	1.1017349310892222	0.19588736993111666	0.3265695776026862	1.1707910931427568	0.19376159246552796	0.3163808987559209	1.1870956379861601	0.1907602555575727	0.3420037871488099	1.2011180401974002
47	1.46875	0.3317488756916558	0.4788761901766702	1.097048689338843	0.3188583986662942	0.6116818078191366	1.5140300422462283	0.31791816307164283	0.7592059627458416	1.9142654873209732	0.2925721721999184	0.586813004357004	1.958003109095058	0.3467412260675148	0.6097319475107459	1.9484451544637285	0.2978645539236345	0.8576909789090454	1.9780530242408654	0.13154518355690875	0.5005193700036121	1.0935677380659365	0.13496472732986256	0.6281744421534574	1.502457697921404	0.1252054668076802	0.737786620395071	1.8948526565130113	0.12984195763099793	0.5690042209011293	1.93896917461461	0.07877548069504989	0.6098682760677665	1.9428559691159792	0.1444087631632244	0.7926918511756778	1.946693386727629	0.21489661213201416	0.417721406171674	0.5506316503587398	0.22261154717177975	0.3384128094872298	0.3276270871020358	0.19626619215027413	0.27860613910060816	0.4365637325625692	0.36124484651760214	0.41896090942843867	0.6441944506838578	0.3725591624472089	0.42340734367130073	0.9217779753426694	0.307198118865529	0.3426193646465643	1.1297965414129765	0.20404755612019837	0.3294409571579689	1.1954372721167312	0.20402312734878042	0.3647273895429638	1.24892789693171	0.24410366464200578	0.3785144348048013	1.2578802562266582	0.060037734180226156	0.4135800290842109	0.6350491323936354	0.047356710506018536	0.42944380555372763	0.9209745401354386	0.137928174293732	0.3273878599435322	1.1039236714450904	0.19632715244415772	0.3257668996287614	1.1750964706636977	0.19834092456623348	0.3181003276183943	1.195292602761047	0.19080348714046186	0.3474311795952459	1.211667735929825
48	1.5	0.33182279710231793	0.4765168759414157	1.0997531791812067	0.3204695987023689	0.5975552188542764	1.510351321791929	0.32080500736073503	0.7480518744234298	1.9081783204281706	0.2925724492431798	0.5869682838313957	1.9579928829474376	0.35102898503274	0.6188399865718698	1.9523543278902729	0.2971192597940895	0.8580878955879088	1.977781385754013	0.13169998925056303	0.5005979288778013	1.0981044415307741	0.13496855676579914	0.6285087223630956	1.5025759370859397	0.12522516411300916	0.7376260838284838	1.8947978196898259	0.12981808084217236	0.5690453087932053	1.9391187355726323	0.0787397236480821	0.609899237507769	1.9429305480034276	0.14545160775778207	0.7943776073423817	1.9441411798004555	0.21611127454489482	0.41746295983152876	0.5516101812136549	0.22141971054124232	0.33835846966329763	0.32855822524539785	0.19515343287724513	0.2784049867194747	0.4366495583047787	0.36138255535119995	0.4179193206754467	0.6448949596482639	0.3719788809196388	0.4192897419224092	0.9187393535566653	0.30555663758853824	0.3398095441911003	1.128829373842661	0.20119459368767217	0.3306259330251271	1.1958462703887849	0.20407190253093033	0.36535720530017224	1.2550538813886398	0.24657715128775132	0.37009414945303176	1.2613520514115397	0.06084857232493112	0.416993577199773	0.6349361798880542	0.04741552845077532	0.42923252302221915	0.9209036104189434	0.13531841292180607	0.32476795384706064	1.1041605526902973	0.1990316967564168	0.32482835651944947	1.1754292435093558	0.19828270283692137	0.3260340532317843	1.1999776134668325	0.19065225284543574	0.3469421406944581	1.2130113702878926
49	1.53125	0.33061620978211126	0.47572276098910404	1.0967932730978283	0.3199763621313891	0.5869668166242028	1.5045390728711139	0.3218351128673892	0.7434568238404412	1.9065512973886065	0.29267001878672677	0.5870731745811907	1.9580817050837276	0.354231603927799	0.6236390063962269	1.9546480979181475	0.29690999337590745	0.8579087075045	1.9777915332678164	0.1316745957967139	0.5006481840979438	1.098844488913794	0.1349083890743225	0.628047452176755	1.502566512434723	0.12532884982800646	0.7376224939642931	1.894896839424149	0.1298117884200637	0.569260584239153	1.939306379326259	0.07875495731804624	0.6097114662168694	1.942863882932992	0.14496511011699428	0.7944129138052747	1.9428864433169273	0.2157219055326297	0.4173027638627742	0.551328328368241	0.22175215922611846	0.33847536368431874	0.32834047378770054	0.19538012996645074	0.27837330805759875	0.43654544738540296	0.36129322064525676	0.41703139683588003	0.6443770097167789	0.37182737529690046	0.4191300255386019	0.9161638008082983	0.3052879584754723	0.3377091888100317	1.1281870690016593	0.20112625045708146	0.330812844592309	1.1984999648372607	0.20403418860399375	0.3657651029943877	1.255004920242387	0.24709412059970648	0.3680206699494171	1.2617433331027248	0.060706604820283006	0.4157414520870265	0.6358396845243042	0.047494570472947466	0.42927214880772646	0.9211307734586184	0.1331177257405464	0.325138726648728	1.104023924220769	0.2000807198121383	0.3253437173418578	1.1751151512543174	0.19664206131777978	0.3303523727065132	1.1992970294192644	0.19069807307824327	0.34886816204083015	1.2135371742903107
50	1.5625	0.3283392124234105	0.47666641024031564	1.0955523263245217	0.3193948696661345	0.5880029122119259	1.5041446980457491	0.3213907007648693	0.7449406187459986	1.9074009343092821	0.29254335154157457	0.5870001152038836	1.9580690053795	0.3537196958384407	0.6227105466987918	1.9543753339590633	0.29715088465337947	0.8579017437830327	1.9777873897764917	0.1315431711900776	0.5005656249341687	1.0967253576751181	0.13502611236417786	0.6281845764115599	1.5024536485718385	0.1252569531620735	0.7375395844522723	1.8946779896504746	0.1298136735437402	0.5693258057259998	1.9393149286635438	0.07874474615864599	0.609509212391629	1.9427479681137985	0.1451409502754924	0.7954815432914307	1.9436555162182285	0.2157558946838702	0.4176731511027194	0.5513707699107948	0.22187132161113382	0.33855242205687985	0.3282615859883826	0.19547763313000793	0.2784473712893959	0.43665893648382004	0.3613114623658479	0.41712317262858645	0.6444138496548761	0.37206669537545367	0.4182917924346181	0.9159602882697715	0.3027874405428609	0.33088787393373686	1.1278516252055184	0.2032459775098981	0.3318048117407335	1.202183297254312	0.20400478969285119	0.36565642908798	1.2553636596522209	0.24662699141562514	0.37011224285013633	1.2624581420364076	0.06067165451416644	0.4155056728658802	0.6380644548127354	0.047495839681516515	0.42938883538142747	0.9212121219906737	0.13204787593716735	0.3253200466361215	1.1041997859452664	0.19975166355396987	0.32558057570309484	1.1754521241149665	0.19804929881173347	0.3308443244199159	1.1995293380329604	0.19007360479435081	0.34999076201573887	1.217631772750317
